# xmcd
#
# Track frame offsets: 
#        150
#        19954
#        29272
#        40071
#        53693
#        64513
#        81344
#        101245
#
# Disc length: 2169 seconds
#
# Revision: 0
# Processed by: cddbd v1.5.2PL0 Copyright (c) Steve Scherf et al.
# Submitted via: ExactAudioCopy v1.0b1
#
DISCID=61087708
DTITLE=The Mighty Tom Cats - Soul Makossa
DYEAR=1974
DGENRE=Soul
TTITLE0=Soul Makossa
TTITLE1=Tom Cat Reggay
TTITLE2=Skin 'n' Soul
TTITLE3=Good Groove
TTITLE4=Mozambique
TTITLE5=Dance Girl
TTITLE6=Finger In It
TTITLE7=Bahamas Melody
EXTD=
EXTT0=
EXTT1=
EXTT2=
EXTT3=
EXTT4=
EXTT5=
EXTT6=
EXTT7=
PLAYORDER=
